HIERARCHY
ROOT RightCollar
{
	OFFSET -0.263122 -0.003980 3.801207
	CHANNELS 6 Xposition Yposition Zposition Xrotation Yrotation Zrotation
	JOINT RightShoulder
	{
		OFFSET -1.381779 0.000000 0.000000
		CHANNELS 3 Xrotation Yrotation Zrotation
		JOINT RightElbow
		{
			OFFSET -2.454748 0.000000 0.000000
			CHANNELS 3 Xrotation Yrotation Zrotation
			JOINT RightWrist
			{
				OFFSET -2.035185 -0.001238 0.000000
				CHANNELS 3 Xrotation Yrotation Zrotation
				End Site
				{
					OFFSET -1.535909 0.000000 0.000000
				}
			}
		}
	}
}
MOTION
Frames: 44
Frame Time: 0.050000
-0.263122 -0.003980 3.801207 -23.944140 -5.557462 3.207259 -37.391686 -32.070627 11.139064 -55.543675 -62.944510 11.797046 1888.158914 222.934724 -614.301750 
-0.263122 -0.003980 3.801207 -25.975618 -4.933330 1.665073 -36.740434 -31.603074 11.591021 -61.812802 -56.189678 10.699088 1904.398809 209.684185 -584.577204 
-0.263122 -0.003980 3.801207 -25.993103 -4.342584 0.775603 -39.489517 -33.325996 13.313798 -61.473601 -59.063624 16.590763 1904.406240 179.928903 -538.114541 
-0.263122 -0.003980 3.801207 -27.567576 -3.532241 0.529059 -36.090354 -33.921052 17.300881 -52.945970 -56.837245 29.359807 1904.610599 174.335196 -507.726429 
-0.263122 -0.003980 3.801207 -28.015088 -2.776571 -0.284780 -34.450231 -33.965728 18.575683 -43.440987 -54.992100 41.369448 1914.810421 173.440619 -499.195577 
-0.263122 -0.003980 3.801207 -28.858021 -2.323107 -0.602799 -32.767716 -32.225188 19.106785 -37.161567 -52.948122 46.992367 1931.122661 170.247151 -492.120157 
-0.263122 -0.003980 3.801207 -30.271415 -2.025079 -0.876763 -29.310510 -29.987505 19.514376 -32.762672 -47.405570 50.964583 1944.059805 166.566717 -488.715827 
-0.263122 -0.003980 3.801207 -31.291692 -2.324378 -0.868447 -28.208471 -28.100802 18.205193 -29.125262 -45.278820 52.109921 1955.086681 162.444725 -486.536013 
-0.263122 -0.003980 3.801207 -31.686433 -2.124359 -1.297986 -26.824791 -26.935193 16.613016 -26.120547 -41.968217 52.481036 1961.782452 160.347625 -485.433565 
-0.263122 -0.003980 3.801207 -32.122830 -2.482291 -0.988402 -25.115220 -24.897839 15.155920 -23.991752 -39.503338 51.337023 1967.943392 158.297489 -485.630931 
-0.263122 -0.003980 3.801207 -32.639179 -2.955739 -0.426724 -24.486759 -23.326640 13.454521 -20.844638 -35.402308 49.583017 1971.845670 156.937352 -485.991619 
-0.263122 -0.003980 3.801207 -32.666274 -3.308019 -0.093267 -24.301700 -22.309705 11.513934 -18.356383 -32.262590 47.305569 1975.240001 155.909586 -486.131775 
-0.263122 -0.003980 3.801207 -32.373918 -3.672026 0.249007 -24.235357 -22.005271 9.391850 -15.644724 -29.189828 44.763639 1977.890988 154.993836 -486.638465 
-0.263122 -0.003980 3.801207 -32.086607 -3.899127 0.405789 -24.504977 -22.070155 7.375665 -12.207559 -25.967770 41.581235 1979.643451 154.537838 -487.522784 
-0.263122 -0.003980 3.801207 -31.029539 -4.039043 0.848530 -25.279476 -22.347378 4.889050 -8.112957 -22.905552 38.554676 1981.515688 153.904789 -489.192137 
-0.263122 -0.003980 3.801207 -30.088848 -4.239067 1.071256 -25.211065 -23.136670 2.501955 -4.592129 -19.747527 35.203177 1982.511912 153.862415 -490.379606 
-0.263122 -0.003980 3.801207 -28.177134 -4.289642 1.122874 -26.771456 -24.698765 -0.003988 -0.761101 -17.356549 31.089389 1982.807195 153.805642 -491.447301 
-0.263122 -0.003980 3.801207 -26.442755 -4.540653 0.960285 -28.386934 -26.542460 -3.156475 3.120919 -13.762297 26.914676 1983.676650 154.001778 -493.061411 
-0.263122 -0.003980 3.801207 -23.655274 -4.730520 0.892809 -31.258228 -29.002349 -6.924409 3.136077 -11.912108 21.771655 1983.793146 154.060395 -493.496795 
-0.263122 -0.003980 3.801207 -20.067994 -4.741663 0.798731 -36.719961 -31.897687 -11.020005 3.668145 -9.965597 15.759690 1983.577203 153.941781 -494.709399 
-0.263122 -0.003980 3.801207 -17.087513 -4.827623 0.686820 -41.191884 -34.900644 -15.056006 2.806198 -7.464005 9.157344 1984.155310 153.703258 -496.463447 
-0.263122 -0.003980 3.801207 -12.209802 -4.547378 0.829470 -47.648878 -38.106110 -20.044058 1.395766 -5.075567 3.751101 1984.301312 153.419887 -499.232078 
-0.263122 -0.003980 3.801207 -8.275949 -4.928043 1.122926 -54.419956 -40.036581 -26.287178 1.949957 -3.122667 0.580750 1986.105575 152.255613 -505.510551 
-0.263122 -0.003980 3.801207 -4.400844 -5.311429 1.017758 -59.617887 -40.979421 -32.827423 2.993331 -1.610117 -0.517693 1986.267095 151.758361 -510.169615 
-0.263122 -0.003980 3.801207 -2.731401 -5.885118 2.201800 -60.293652 -41.348425 -37.834337 5.523415 0.729591 -0.904173 1987.413474 151.797594 -516.580157 
-0.263122 -0.003980 3.801207 -2.096244 -6.352049 1.939807 -61.009927 -42.245027 -42.809986 8.507294 3.457198 -1.566605 1988.096493 151.948473 -521.467185 
-0.263122 -0.003980 3.801207 -1.596810 -6.673680 2.187497 -59.296533 -42.628481 -47.019060 13.524129 5.308184 -0.713399 1987.270750 153.221675 -528.864498 
-0.263122 -0.003980 3.801207 0.176265 -6.858115 2.719156 -57.829764 -43.615788 -51.180838 16.631391 6.909708 0.912509 1987.230971 153.554278 -535.640046 
-0.263122 -0.003980 3.801207 1.365867 -7.121470 2.732390 -56.715791 -44.878076 -54.775160 20.241298 8.305527 1.647747 1986.556477 154.790228 -542.648421 
-0.263122 -0.003980 3.801207 3.274151 -7.476636 2.747574 -55.945885 -45.027954 -57.570900 23.803301 8.298051 3.627370 1986.817663 157.309843 -550.973930 
-0.263122 -0.003980 3.801207 4.798308 -7.401218 3.167596 -53.468893 -45.102697 -58.818434 30.190146 6.883165 6.927536 1985.871272 161.696054 -558.383374 
-0.263122 -0.003980 3.801207 5.398934 -7.084752 3.838282 -47.994964 -46.624019 -57.719361 37.777155 5.673266 10.379928 1985.501240 164.742537 -562.085008 
-0.263122 -0.003980 3.801207 5.952931 -7.153429 4.143232 -43.283284 -46.168855 -56.278378 46.109347 3.066642 14.978077 1984.437697 167.322901 -565.422293 
-0.263122 -0.003980 3.801207 6.108935 -7.166032 4.475339 -38.344989 -46.496783 -54.188330 51.513888 0.139389 19.345611 1985.824062 169.992412 -568.672808 
-0.263122 -0.003980 3.801207 5.944929 -7.293431 4.565748 -34.266417 -45.368790 -52.728934 58.508336 -2.258644 25.203188 1983.391203 173.692790 -570.483190 
-0.263122 -0.003980 3.801207 5.979030 -7.318509 4.558811 -30.565834 -45.078955 -50.912927 62.709927 -6.099434 30.431976 1982.726107 176.611043 -572.071182 
-0.263122 -0.003980 3.801207 6.294009 -7.464756 4.550924 -27.261127 -45.337098 -49.334692 67.274146 -8.387588 35.117954 1980.552904 179.148909 -572.459574 
-0.263122 -0.003980 3.801207 6.608571 -7.643000 4.274387 -24.790607 -45.728301 -47.942908 71.188733 -10.654626 39.493704 1978.911036 181.555307 -572.683058 
-0.263122 -0.003980 3.801207 6.584347 -7.785582 4.213641 -22.678875 -45.768220 -46.975692 75.315130 -12.515561 44.178121 1977.460413 184.032467 -573.494976 
-0.263122 -0.003980 3.801207 6.510568 -7.891263 4.237223 -20.906712 -45.804133 -46.154477 77.265955 -14.841943 47.540053 1972.447164 185.992950 -574.479288 
-0.263122 -0.003980 3.801207 6.547732 -8.039938 4.065480 -19.121135 -45.739441 -45.147165 77.522230 -15.812315 48.947690 1969.973214 189.663275 -575.132801 
-0.263122 -0.003980 3.801207 6.062869 -8.101211 4.260830 -17.281485 -45.136766 -44.177407 78.606776 -15.231708 50.981488 1967.734005 192.483624 -574.245204 
-0.263122 -0.003980 3.801207 5.852144 -8.199310 4.187471 -17.001318 -44.808011 -44.376333 79.162712 -15.979142 52.696716 1966.777342 193.348913 -572.993148 
-0.263122 -0.003980 3.801207 5.736913 -8.166370 4.081015 -16.758503 -44.872591 -44.452886 79.522328 -16.820509 53.547969 1965.978701 192.155324 -572.028889 
